<?xml version="1.0" standalone="no"?>
<!DOCTYPE svg PUBLIC "-//W3C//DTD SVG 20010904//EN"
 "http://www.w3.org/TR/2001/REC-SVG-20010904/DTD/svg10.dtd">
<svg version="1.0" xmlns="http://www.w3.org/2000/svg"
 width="370.000000pt" height="444.000000pt" viewBox="0 0 370.000000 444.000000"
 preserveAspectRatio="xMidYMid meet">

<g transform="translate(0.000000,444.000000) scale(0.100000,-0.100000)"
fill="#000000" stroke="none">
<path d="M1770 4264 c-225 -28 -440 -101 -645 -219 -50 -29 -211 -145 -251
-181 -12 -10 -36 -33 -55 -50 -82 -73 -218 -246 -297 -376 -215 -357 -277
-828 -167 -1272 16 -64 21 -78 80 -221 122 -296 354 -566 652 -758 92 -59 124
-75 248 -125 166 -66 273 -94 464 -118 207 -25 566 19 726 91 17 7 43 17 59
21 80 20 302 149 422 247 97 78 145 123 204 192 28 33 60 69 69 80 32 36 148
220 185 294 54 107 122 319 147 456 32 168 32 412 1 576 -28 148 -73 289 -128
407 -249 534 -733 886 -1317 957 -144 17 -246 17 -397 -1z m348 -254 c106 -29
168 -66 249 -146 170 -171 212 -407 109 -629 -84 -181 -262 -301 -466 -312
-70 -4 -112 -1 -160 11 -209 53 -372 220 -416 425 -19 91 -17 154 6 245 27
106 73 188 147 262 139 139 346 195 531 144z m381 -1059 c45 -23 49 -29 94
-107 67 -118 106 -282 137 -577 11 -100 20 -239 20 -309 l0 -128 -776 0 -775
0 6 178 c15 399 52 632 127 790 71 151 189 198 325 129 109 -54 172 -70 304
-75 171 -6 222 7 364 89 60 34 119 38 174 10z m-845 -1323 c47 -52 97 -84 114
-74 4 2 104 7 222 10 118 4 292 11 385 16 245 14 265 5 265 -109 0 -49 -4 -65
-24 -87 l-23 -28 -209 13 c-242 14 -629 19 -661 7 -13 -4 -34 -28 -49 -54 -39
-70 -66 -86 -150 -90 -78 -4 -116 9 -166 56 -43 40 -36 49 45 61 124 19 122
18 119 85 -1 32 -9 71 -17 87 -19 36 -58 38 -146 8 -33 -12 -63 -19 -66 -15
-21 21 54 123 116 156 29 16 52 20 114 17 l78 -2 53 -57z"/>
<path d="M2020 2644 c-6 -14 -10 -28 -10 -31 0 -3 -7 -19 -15 -36 -8 -18 -30
-75 -49 -127 -19 -52 -44 -120 -56 -150 -38 -99 -70 -187 -70 -194 0 -3 17 -6
39 -6 l38 0 43 113 c23 61 53 139 65 172 13 33 41 109 64 168 23 59 41 110 41
112 0 3 -18 5 -40 5 -34 0 -42 -4 -50 -26z"/>
<path d="M1695 2511 c-6 -4 -66 -34 -135 -66 -69 -31 -128 -60 -131 -64 -4 -3
-9 -18 -13 -33 -6 -27 -3 -30 125 -94 189 -94 179 -92 179 -43 l0 40 -77 36
c-43 19 -89 40 -103 45 -23 10 -19 13 65 54 50 24 96 44 103 44 8 0 12 16 12
45 0 44 -7 53 -25 36z"/>
<path d="M2220 2476 c0 -37 3 -45 23 -50 38 -9 179 -77 173 -83 -3 -3 -47 -25
-98 -47 l-93 -42 -3 -42 c-2 -23 0 -42 5 -41 4 0 73 33 153 73 134 67 145 75
148 102 2 25 -3 31 -40 49 -24 10 -92 43 -152 72 -60 29 -110 53 -112 53 -2 0
-4 -20 -4 -44z"/>
<path d="M593 589 c-18 -19 -18 -345 0 -352 6 -2 39 -2 72 0 113 9 162 56 179
175 9 60 -17 125 -64 158 -39 28 -166 41 -187 19z m157 -104 c8 -9 13 -38 12
-67 -1 -68 -26 -103 -73 -103 l-34 0 -3 91 c-2 74 0 95 13 108 14 14 20 14 44
2 15 -8 34 -22 41 -31z"/>
<path d="M897 582 c-14 -16 -17 -43 -17 -168 0 -82 4 -156 9 -163 7 -11 34
-15 105 -16 105 -2 131 10 119 53 -5 20 -11 22 -80 22 l-74 0 3 38 c3 36 4 37
48 40 47 4 60 14 60 49 0 19 -6 22 -52 25 -46 3 -53 6 -56 26 -4 27 10 33 80
36 29 2 63 6 74 10 19 7 24 1 42 -51 47 -134 83 -227 93 -239 27 -33 44 -9
104 151 14 39 35 91 46 117 27 65 25 88 -6 88 -30 0 -46 -22 -80 -115 -15 -38
-30 -74 -35 -78 -7 -8 -20 20 -59 133 -16 47 -23 56 -47 58 -15 2 -30 -2 -35
-10 -7 -10 -11 -10 -21 0 -8 8 -45 12 -108 12 -81 0 -100 -3 -113 -18z"/>
<path d="M1460 581 c-14 -26 -13 -328 0 -336 19 -12 184 -13 202 -1 10 6 18
23 18 38 l0 28 -75 0 -75 0 0 40 0 40 49 0 c51 0 61 9 61 51 0 16 -7 19 -55
19 -54 0 -55 0 -55 30 0 30 0 30 56 30 71 0 94 12 94 50 l0 30 -105 0 c-93 0
-105 -2 -115 -19z"/>
<path d="M1733 580 c-9 -13 -13 -68 -13 -174 0 -111 3 -156 13 -163 7 -6 53
-9 106 -7 99 4 111 9 111 52 0 21 -4 22 -75 22 l-74 0 -3 143 -3 142 -25 3
c-16 2 -29 -4 -37 -18z"/>
<path d="M2062 583 c-60 -29 -85 -74 -89 -161 -5 -86 11 -130 58 -165 69 -50
180 -23 221 55 28 56 31 167 5 216 -36 66 -123 91 -195 55z m89 -63 c19 0 49
-66 49 -108 0 -115 -111 -150 -147 -47 -29 84 15 178 75 159 8 -2 18 -4 23 -4z"/>
<path d="M2333 589 c-9 -9 -13 -60 -13 -179 0 -92 3 -169 6 -172 3 -3 17 -3
32 1 24 7 28 13 32 61 l5 55 44 7 c58 10 89 32 108 76 20 49 8 108 -29 135
-34 25 -166 36 -185 16z m141 -96 c11 -27 -4 -51 -34 -58 -16 -4 -34 -4 -40 0
-13 8 -13 68 1 82 14 14 65 -2 73 -24z"/>
<path d="M2612 588 c-8 -8 -12 -60 -12 -179 0 -194 -11 -179 129 -174 87 3
104 11 99 50 -3 18 -12 20 -81 23 l-78 3 3 37 c3 37 4 37 53 42 48 5 50 6 53
37 l3 32 -53 3 c-49 3 -53 5 -53 28 0 24 4 25 67 30 74 6 91 16 86 51 -3 23
-6 24 -103 27 -70 2 -104 -1 -113 -10z"/>
<path d="M2882 587 c-9 -11 -12 -60 -10 -178 3 -163 3 -164 26 -167 36 -5 50
13 50 69 0 27 3 53 7 57 8 8 64 -53 86 -95 19 -35 74 -51 88 -25 7 12 12 12
39 -2 87 -45 191 9 191 99 0 47 -20 75 -75 103 -49 25 -68 47 -60 67 6 18 39
20 68 4 18 -9 24 -8 35 7 21 28 16 61 -9 68 -63 16 -136 -4 -158 -43 -24 -46
-2 -141 33 -141 21 0 87 -61 87 -80 0 -25 -22 -31 -65 -17 -30 9 -39 8 -46 -4
-26 -44 -27 -44 -47 -19 -11 14 -30 44 -43 67 l-23 42 23 25 c34 36 33 108 -3
144 -23 24 -36 27 -104 30 -60 3 -81 0 -90 -11z m132 -80 c30 -22 12 -57 -29
-57 -35 0 -47 15 -38 49 6 24 40 28 67 8z"/>
</g>
</svg>
